<mxfile host="app.diagrams.net" modified="2023-05-29T13:34:26.386Z" agent="Mozilla/5.0 (Windows NT 10.0; Win64; x64) AppleWebKit/537.36 (KHTML, like Gecko) Chrome/113.0.0.0 Safari/537.36" version="21.3.5" etag="9g9dbIt_w6uKMkdIuk8g" type="github">
  <diagram name="Page-1" id="bxqhoE-cmlJoWQWJi36k">
    <mxGraphModel>
      <root>
        <mxCell id="0" />
        <mxCell id="1" parent="0" />
      </root>
    </mxGraphModel>
  </diagram>
</mxfile>
